:SAMPLES-PER-SECOND 30
:FULLY-SPECIFIED
:DEGREES
81
root  5.5077 39.0685 0.233453 0.52153 -55.1258 -4.03481
RightUpLeg  -12.1259 -3.06208 4.51815
RightLeg  26.2051 -9.06474 -5.04502
RightFoot  -7.65255 -0.296072 7.53601
RightToes  -1.28057e-009 0 -3.6325e-017
Spine  16.3031 -6.15247 -4.57623
Spine1  3.15237 -9.24416 10.0701
HEad  -20.1793 -10.0157 2.62839
LeftShoulder1  3.7685 -10.4648 -20.5671
LeftArm  9.85252 -17.4107 -61.1738
LeftForeArm  12.9061 -16.1854 -8.7912
LeftHand  2.04997 8.87618 60.1465
RightShoulder  0.875848 1.11816 11.9232
RightArm  27.9796 24.4847 70.4195
RightForeArm  34.602 21.7033 4.08923
RightHand  -1.94164 -0.41527 -43.5334
LeftUpLeg  -13.9415 -13.664 -1.87265
LeftLeg  25.2997 4.39977 2.65311
LeftFoot  -7.84766 0.0167185 0.96574
LeftToes  -7.27922e-012 9.28972e-011 -9.04533e-012
82
root  5.67797 39.1431 1.20585 -8.75995 -61.8195 4.99144
RightUpLeg  -11.7094 6.49341 -0.748407
RightLeg  28.887 -10.3932 -6.38732
RightFoot  -7.51034 -0.312814 7.83054
RightToes  -1.28057e-009 0 -3.6325e-017
Spine  14.8029 -6.81577 6.38166
Spine1  2.73942 -4.98249 -7.89282
HEad  -17.4583 -11.0798 0.293042
LeftShoulder1  3.84066 -10.1848 -21.7363
LeftArm  -8.23926 -14.7421 -49.4345
LeftForeArm  4.87112 -16.5423 -7.61383
LeftHand  2.05986 8.95114 59.3716
RightShoulder  0.908214 2.03535 9.08515
RightArm  39.5593 33.7683 82.0425
RightForeArm  34.4256 23.0019 3.56704
RightHand  -1.88924 -0.539116 -43.426
LeftUpLeg  -9.29727 -4.46176 -7.59476
LeftLeg  20.7363 3.46964 1.61762
LeftFoot  -6.73812 0.0154433 0.691115
LeftToes  -7.27922e-012 9.28972e-011 -9.04533e-012
83
root  5.67316 39.1432 2.13503 -23.2232 -67.6583 21.0461
RightUpLeg  -13.803 18.2713 -6.67301
RightLeg  32.5057 -13.8746 -9.59007
RightFoot  -8.43869 -0.226375 6.53463
RightToes  -1.28057e-009 0 -3.6325e-017
Spine  13.4443 -6.45543 15.8195
Spine1  0.49198 -0.703175 -24.9697
HEad  -13.9903 -11.7212 -3.57073
LeftShoulder1  3.2731 -8.48442 -20.8739
LeftArm  -25.2388 -15.1822 -40.0133
LeftForeArm  2.03641 -16.1777 -6.36733
LeftHand  2.29352 9.40353 58.8663
RightShoulder  0.653799 2.22111 3.32495
RightArm  45.4001 42.8824 94.6814
RightForeArm  37.3132 25.4998 3.46117
RightHand  -1.99031 -0.325842 -43.7854
LeftUpLeg  -6.66829 2.07944 -12.6193
LeftLeg  15.3423 4.47547 -0.490164
LeftFoot  -5.67823 0.145384 -2.25165
LeftToes  -7.27922e-012 9.28972e-011 -9.04533e-012
84
root  5.56744 38.9692 2.70557 -37.4001 -69.511 37.3822
RightUpLeg  -17.2872 26.2651 -11.9321
RightLeg  36.863 -16.9467 -13.4221
RightFoot  -10.4848 -0.104581 4.28777
RightToes  -1.28057e-009 0 -3.6325e-017
Spine  12.9855 -5.86955 20.5541
Spine1  -2.49024 1.38351 -35.0586
HEad  -11.8006 -11.5989 -7.52667
LeftShoulder1  2.16915 -5.62682 -17.0008
LeftArm  -39.4901 -18.5907 -35.4993
LeftForeArm  3.72953 -16.665 -4.79209
LeftHand  2.39404 9.6245 58.3855
RightShoulder  0.209877 0.978722 -4.58553
RightArm  45.1455 52.4544 104.944
RightForeArm  42.7634 29.7689 4.15195
RightHand  -1.97217 -0.31638 -43.3406
LeftUpLeg  -6.45392 1.02402 -15.9353
LeftLeg  12.3595 8.67635 -3.00995
LeftFoot  -5.81243 0.365256 -6.92379
LeftToes  -7.27922e-012 9.28972e-011 -9.04533e-012
85
root  5.51104 38.7239 2.8188 -40.5941 -67.4633 41.3631
RightUpLeg  -18.8237 27.5581 -14.339
RightLeg  40.2295 -18.161 -15.9924
RightFoot  -12.2128 -0.0583063 2.86506
RightToes  -1.28057e-009 0 -3.6325e-017
Spine  12.971 -6.27564 19.9462
Spine1  -3.90772 0.592319 -36.0074
HEad  -11.8865 -11.3896 -9.95162
LeftShoulder1  1.19217 -2.97268 -11.2271
LeftArm  -48.6241 -23.4001 -34.0798
LeftForeArm  7.12946 -20.4753 -4.20807
LeftHand  2.39335 9.65702 58.0113
RightShoulder  -0.026786 -1.46433 -11.2719
RightArm  40.3227 63.286 108.853
RightForeArm  46.2454 36.1618 5.48835
RightHand  -1.82123 -0.650947 -42.9118
LeftUpLeg  -6.81475 1.31537 -17.5346
LeftLeg  12.7153 7.0486 -4.79635
LeftFoot  -6.83383 0.409899 -9.30306
LeftToes  -7.27922e-012 9.28972e-011 -9.04533e-012
86
root  5.55561 38.524 2.61053 -35.1234 -64.0719 35.1298
RightUpLeg  -17.8359 24.023 -13.8156
RightLeg  41.5294 -17.4707 -16.1302
RightFoot  -13.0735 -0.0270038 4.02808
RightToes  -1.28057e-009 0 -3.6325e-017
Spine  13.9179 -7.4319 16.4292
Spine1  -4.27981 -1.63603 -31.4933
HEad  -12.7367 -11.8027 -10.1759
LeftShoulder1  0.681692 -1.48083 -6.04647
LeftArm  -53.7267 -30.0157 -31.858
LeftForeArm  11.6745 -26.473 -5.04086
LeftHand  2.28333 9.48626 57.6868
RightShoulder  0.0155369 -3.92712 -14.1515
RightArm  21.1125 71.2259 95.1524
RightForeArm  46.4216 44.0823 7.74364
RightHand  -1.5947 -1.25137 -43.0432
LeftUpLeg  -7.01135 1.43811 -17.8608
LeftLeg  15.2117 3.98767 -4.75236
LeftFoot  -7.6708 0.297081 -7.79744
LeftToes  -7.27922e-012 9.28972e-011 -9.04533e-012
87
root  5.64209 38.4373 2.18528 -28.3397 -61.9778 27.4371
RightUpLeg  -16.7639 19.1128 -11.6562
RightLeg  40.6238 -15.5045 -14.0527
RightFoot  -13.3027 0.0159921 6.2895
RightToes  -1.28057e-009 0 -3.6325e-017
Spine  17.1107 -7.85187 12.7916
Spine1  -6.69252 -3.32231 -25.9844
HEad  -12.3774 -12.8587 -8.60758
LeftShoulder1  0.539041 -1.41714 -2.88662
LeftArm  -57.2703 -39.129 -28.5374
LeftForeArm  18.4128 -33.3611 -6.33695
LeftHand  2.12642 9.23437 57.2903
RightShoulder  0.0777605 -5.71492 -13.5671
RightArm  -23.9179 69.2133 53.3143
RightForeArm  45.9519 52.8668 11.1963
RightHand  -1.38156 -1.83592 -43.4349
LeftUpLeg  -8.37691 1.28376 -17.3378
LeftLeg  18.8427 1.87652 -2.09987
LeftFoot  -8.21837 0.181996 -4.86405
LeftToes  -7.27922e-012 9.28972e-011 -9.04533e-012
88
root  5.67435 38.4819 1.51136 -19.991 -62.5638 18.9443
RightUpLeg  -16.8904 13.9203 -7.32062
RightLeg  37.6585 -12.7534 -10.6146
RightFoot  -12.8032 -0.0067245 6.06587
RightToes  -1.28057e-009 0 -3.6325e-017
Spine  22.1713 -6.48734 8.81185
Spine1  -12.2262 -3.57292 -18.6613
HEad  -11.2366 -13.816 -6.07063
LeftShoulder1  0.496176 -2.14132 -0.405303
LeftArm  -57.7541 -49.1453 -28.7644
LeftForeArm  28.29 -42.2957 -8.34847
LeftHand  2.32651 9.59201 57.3708
RightShoulder  0.0397036 -6.92103 -10.895
RightArm  -47.8795 57.6872 32.1083
RightForeArm  45.9066 60.3859 15.42
RightHand  -1.40294 -1.88194 -44.5437
LeftUpLeg  -11.7163 -1.55831 -14.1123
LeftLeg  23.1896 2.6953 1.60355
LeftFoot  -8.9164 0.141172 -4.25188
LeftToes  -7.27922e-012 9.28972e-011 -9.04533e-012
89
root  5.56125 38.5888 0.613833 -7.71175 -63.9501 7.11229
RightUpLeg  -17.4182 6.81255 -0.488936
RightLeg  32.9696 -8.67207 -6.28513
RightFoot  -11.5399 -0.0710223 3.51672
RightToes  -1.28057e-009 0 -3.6325e-017
Spine  26.2391 -3.35003 2.08715
Spine1  -17.2517 -2.63868 -5.45096
HEad  -11.3766 -13.5389 -3.65311
LeftShoulder1  0.342636 -2.81783 3.46181
LeftArm  -50.8255 -57.8112 -37.2612
LeftForeArm  41.6095 -53.7603 -12.0365
LeftHand  2.78311 10.4027 57.6167
RightShoulder  -0.0801946 -7.65024 -7.357
RightArm  -57.4382 43.9901 23.6427
RightForeArm  42.7377 62.7697 17.699
RightHand  -1.69206 -1.36153 -46.537
LeftUpLeg  -16.2361 -8.21866 -6.67681
LeftLeg  27.882 6.75744 4.2276
LeftFoot  -9.7313 0.150376 -6.55803
LeftToes  -7.27922e-012 9.28972e-011 -9.04533e-012
90
root  5.27697 38.668 -0.309975 6.73189 -62.842 -6.33086
RightUpLeg  -17.8632 -3.00881 7.30369
RightLeg  27.6513 -2.87814 -1.89265
RightFoot  -10.2583 -0.102542 3.07272
RightToes  -1.28057e-009 0 -3.6325e-017
Spine  26.2855 -0.281013 -7.25708
Spine1  -17.6688 -2.18014 12.6309
HEad  -13.2303 -11.1254 -1.86526
LeftShoulder1  0.0684664 -3.43005 8.49516
LeftArm  -34.742 -65.4295 -53.6362
LeftForeArm  56.18 -63.4693 -16.7549
LeftHand  2.90108 10.6953 56.9014
RightShoulder  -0.199083 -7.66402 -4.12907
RightArm  -60.6441 33.1354 19.4755
RightForeArm  35.8017 59.0327 15.6172
RightHand  -2.15176 -0.499444 -48.4682
LeftUpLeg  -21.4897 -14.6827 2.18915
LeftLeg  32.3643 9.84925 7.03073
LeftFoot  -9.773 0.179859 -8.74959
LeftToes  -7.27922e-012 9.28972e-011 -9.04533e-012
91
root  4.89053 38.6067 -1.04674 18.619 -58.5131 -16.4663
RightUpLeg  -19.2832 -12.3704 14.8102
RightLeg  23.5345 2.44598 1.07437
RightFoot  -10.0959 -0.138128 6.77095
RightToes  -1.28057e-009 0 -3.6325e-017
Spine  23.7818 0.424577 -15.7299
Spine1  -15.2671 -4.11653 29.5491
HEad  -15.3415 -7.14738 0.252232
LeftShoulder1  -0.204756 -4.60225 12.549
LeftArm  -2.59447 -67.5242 -81.7976
LeftForeArm  65.432 -66.5098 -18.7176
LeftHand  2.77946 10.5565 56.1302
RightShoulder  -0.242443 -7.15764 -2.0975
RightArm  -58.6444 25.1291 21.3357
RightForeArm  32.0429 53.3163 12.4487
RightHand  -2.78046 0.649863 -50.3611
LeftUpLeg  -28.4081 -22.8566 11.1984
LeftLeg  37.5391 13.7152 11.4332
LeftFoot  -8.64662 0.243245 -8.29811
LeftToes  -7.27922e-012 9.28972e-011 -9.04533e-012
92
root  4.55474 38.3302 -1.53486 26.4211 -53.4082 -22.417
RightUpLeg  -21.843 -16.4257 21.0926
RightLeg  21.7904 3.66772 2.28286
RightFoot  -11.3201 -0.0774234 10.9886
RightToes  -1.28057e-009 0 -3.6325e-017
Spine  22.5908 -0.329443 -20.2283
Spine1  -13.6216 -6.91507 40.5232
HEad  -17.5407 -3.65014 4.10691
LeftShoulder1  -0.362277 -6.05646 14.0249
LeftArm  38.2316 -66.8361 -114.158
LeftForeArm  65.0056 -61.6463 -14.8855
LeftHand  2.88523 10.6589 56.9707
RightShoulder  -0.262169 -6.64871 -0.179689
RightArm  -53.9729 16.867 28.6218
RightForeArm  32.7113 49.3558 10.5638
RightHand  -3.36588 1.55322 -52.7062
LeftUpLeg  -36.1378 -29.0552 19.7766
LeftLeg  43.0201 15.7967 15.5511
LeftFoot  -7.68077 0.240848 -5.99864
LeftToes  -7.27922e-012 9.28972e-011 -9.04533e-012
93
root  4.47348 37.8705 -1.81626 29.8232 -50.737 -24.8776
RightUpLeg  -24.8411 -16.6372 24.55
RightLeg  23.7639 2.56975 2.38085
RightFoot  -13.359 0.111045 11.7421
RightToes  -1.28057e-009 0 -3.6325e-017
Spine  23.2446 -0.299007 -20.9254
Spine1  -12.2628 -8.24254 44.0314
HEad  -21.7642 -2.03092 8.89011
LeftShoulder1  -0.269338 -6.82956 12.6167
LeftArm  61.534 -55.2867 -127.091
LeftForeArm  59.8458 -50.4566 -9.23807
LeftHand  2.91071 10.5549 58.3365
RightShoulder  -0.266802 -5.78527 3.72785
RightArm  -48.7021 7.07009 36.0636
RightForeArm  32.6421 46.6577 9.50685
RightHand  -3.49292 1.6029 -54.0774
LeftUpLeg  -41.0427 -29.9943 24.4087
LeftLeg  46.7212 14.7442 16.5023
LeftFoot  -8.60794 0.17064 -5.09454
LeftToes  -7.27922e-012 9.28972e-011 -9.04533e-012
94
root  4.70593 37.4586 -1.84962 29.1363 -51.6322 -24.1013
RightUpLeg  -27.5381 -17.8346 24.9909
RightLeg  28.1926 3.59882 1.70032
RightFoot  -14.8518 0.191842 9.52656
RightToes  -1.28057e-009 0 -3.6325e-017
Spine  24.1958 0.371951 -19.1205
Spine1  -9.54798 -8.23827 40.8873
HEad  -28.2379 -2.03593 11.4985
LeftShoulder1  0.301307 -7.39957 6.56462
LeftArm  70.3761 -44.1476 -124.018
LeftForeArm  52.9653 -37.462 -5.40719
LeftHand  2.48219 9.79089 58.2668
RightShoulder  -0.0856487 -4.03298 9.0012
RightArm  -41.8096 -0.647057 41.3425
RightForeArm  30.2767 41.9794 8.09328
RightHand  -3.16743 1.04451 -53.3835
LeftUpLeg  -41.3852 -26.9996 22.934
LeftLeg  47.5621 12.1588 14.2673
LeftFoot  -10.8529 0.0897189 -6.31871
LeftToes  -7.27922e-012 9.28972e-011 -9.04533e-012
